<?xml version="1.0" encoding="UTF-8" standalone="no"?>
<svg
   height="24px"
   viewBox="0 0 24 24"
   width="24px"
   fill="#e3e3e3"
   version="1.1"
   id="svg2"
   sodipodi:docname="menu.svg"
   xml:space="preserve"
   inkscape:version="1.3.2 (091e20e, 2023-11-25, custom)"
   xmlns:inkscape="http://www.inkscape.org/namespaces/inkscape"
   xmlns:sodipodi="http://sodipodi.sourceforge.net/DTD/sodipodi-0.dtd"
   xmlns="http://www.w3.org/2000/svg"
   xmlns:svg="http://www.w3.org/2000/svg"><defs
     id="defs2" /><sodipodi:namedview
     id="namedview2"
     pagecolor="#505050"
     bordercolor="#eeeeee"
     borderopacity="1"
     inkscape:showpageshadow="0"
     inkscape:pageopacity="0"
     inkscape:pagecheckerboard="0"
     inkscape:deskcolor="#d1d1d1"
     inkscape:zoom="36.8125"
     inkscape:cx="9.2767402"
     inkscape:cy="6.6960951"
     inkscape:window-width="3700"
     inkscape:window-height="2126"
     inkscape:window-x="3009"
     inkscape:window-y="-11"
     inkscape:window-maximized="1"
     inkscape:current-layer="svg2" /><path
     id="path1-1"
     style="fill:#ed67ea;fill-opacity:1"
     inkscape:label="path"
     d="M 1 1 L 1 11 L 3 11 L 3 4.4101562 L 14.589844 16 L 16 14.589844 L 4.4101562 3 L 11 3 L 11 1 L 1 1 z M 6 11 L 6 13 L 10.175781 13 L 8.1757812 11 L 6 11 z M 13.824219 11 L 15.824219 13 L 23 13 L 23 11 L 13.824219 11 z M 6 16 L 6 18 L 23 18 L 23 16 L 16.003906 16 L 14.589844 17.414062 L 13.175781 16 L 6 16 z M 6 21 L 6 23 L 23 23 L 23 21 L 6 21 z " /></svg>
